<?xml version="1.0" encoding="UTF-8"?>
<svg width="30px" height="46px" viewBox="0 0 30 46" version="1.1" xmlns="http://www.w3.org/2000/svg" xmlns:xlink="http://www.w3.org/1999/xlink">
    <!-- Generator: Sketch 43.2 (39069) - http://www.bohemiancoding.com/sketch -->
    <title>Artboard</title>
    <desc>Created with Sketch.</desc>
    <defs></defs>
    <g id="Page-1" stroke="none" stroke-width="1" fill="none" fill-rule="evenodd">
        <g id="Artboard" fill-rule="nonzero" fill="#FFFFFF">
            <g id="if_call_325957">
                <path d="M2.382,45.241 C1.11,45.241 0.078,44.209 0.077,42.936 L0.077,42.936 L0.077,3.006 C0.078,1.734 1.109,0.702 2.382,0.702 L2.382,0.702 L27.564,0.702 C28.836,0.702 29.868,1.733 29.868,3.006 L29.868,3.006 L29.868,42.937 C29.868,44.209 28.837,45.242 27.564,45.242 L27.564,45.242 L2.382,45.242 L2.382,45.241 Z M1.09,3.006 L1.09,42.937 C1.092,43.651 1.668,44.229 2.382,44.23 L2.382,44.23 L27.564,44.23 C28.277,44.229 28.855,43.651 28.856,42.937 L28.856,42.937 L28.856,3.006 C28.855,2.293 28.277,1.715 27.564,1.714 L27.564,1.714 L2.382,1.714 C1.668,1.715 1.092,2.293 1.09,3.006 L1.09,3.006 Z" id="Shape"></path>
                <path d="M3.162,36.608 L3.162,3.823 L26.445,3.823 L26.445,36.094 L26.445,36.609 L3.162,36.609 L3.162,36.608 Z M25.939,36.094 L25.939,35.578 L25.939,36.094 L25.939,36.094 Z M4.175,35.578 L25.433,35.578 L25.433,4.853 L4.175,4.853 L4.175,35.578 L4.175,35.578 Z" id="Shape"></path>
                <path d="M12.246,40.349 C12.246,39.029 13.315,37.959 14.636,37.958 L14.636,37.958 C15.955,37.959 17.025,39.028 17.026,40.349 L17.026,40.349 C17.025,41.669 15.956,42.739 14.636,42.74 L14.636,42.74 C13.315,42.738 12.246,41.669 12.246,40.349 L12.246,40.349 Z M13.17,40.349 C13.172,41.159 13.826,41.812 14.636,41.814 L14.636,41.814 C15.445,41.812 16.099,41.159 16.1,40.349 L16.1,40.349 C16.099,39.54 15.445,38.886 14.636,38.884 L14.636,38.884 C13.826,38.886 13.172,39.54 13.17,40.349 L13.17,40.349 Z" id="Shape"></path>
            </g>
            <g id="if_mail_281828" transform="translate(7.000000, 13.000000)">
                <path d="M7.5,0.75 C11.221875,0.75 14.25,3.778125 14.25,7.5 C14.25,11.221875 11.221875,14.25 7.5,14.25 C3.778125,14.25 0.75,11.221875 0.75,7.5 C0.75,3.778125 3.778125,0.75 7.5,0.75 L7.5,0.75 Z M7.5,0 C3.357375,0 0,3.35775 0,7.5 C0,11.642625 3.357375,15 7.5,15 C11.641875,15 15,11.642625 15,7.5 C15,3.35775 11.641875,0 7.5,0 L7.5,0 Z" id="Shape"></path>
                <path d="M9.457875,11.40375 C8.72775,11.755875 8.047875,11.881875 7.178625,11.881875 C5.10075,11.881875 3.300375,10.38375 3.300375,7.927125 C3.300375,5.358375 5.138625,3.117 7.959375,3.117 C10.176375,3.117 11.7,4.653375 11.7,6.756375 C11.7,8.61975 10.654875,9.753 9.3825,9.753 C8.828625,9.753 8.388,9.43875 8.362875,8.72025 L8.324625,8.72025 C7.9095,9.41325 7.3425,9.753 6.637125,9.753 C5.856375,9.753 5.23875,9.148875 5.23875,8.140875 C5.23875,6.592875 6.423,5.182125 8.211,5.182125 C8.765625,5.182125 9.319875,5.308125 9.64725,5.472 L9.24375,7.776375 C9.093,8.620125 9.2055,9.0105 9.58425,9.0105 C10.176,9.036 10.86825,8.26725 10.86825,6.819375 C10.86825,5.081625 9.797625,3.81 7.846125,3.81 C5.856,3.81 4.155375,5.35875 4.155375,7.83975 C4.155375,9.942375 5.51625,11.1765 7.379625,11.1765 C8.059875,11.1765 8.73975,11.038875 9.24375,10.760625 L9.457875,11.40375 Z M8.53875,6.102 C8.41275,6.06375 8.249625,6.02625 8.0355,6.02625 C7.078125,6.02625 6.3225,6.95775 6.3225,8.028375 C6.3225,8.54475 6.562125,8.896875 7.027875,8.896875 C7.619625,8.896875 8.185875,8.140875 8.312625,7.39875 L8.53875,6.102 Z" id="Shape"></path>
            </g>
        </g>
    </g>
</svg>