<?xml version="1.0" encoding="UTF-8"?>
<svg width="344px" height="258px" viewBox="0 0 344 258" version="1.1" xmlns="http://www.w3.org/2000/svg" xmlns:xlink="http://www.w3.org/1999/xlink">
    <!-- Generator: Sketch 43.2 (39069) - http://www.bohemiancoding.com/sketch -->
    <title>Artboard</title>
    <desc>Created with Sketch.</desc>
    <defs></defs>
    <g id="Page-1" stroke="none" stroke-width="1" fill="none" fill-rule="evenodd">
        <g id="Artboard" fill-rule="nonzero" fill="#FFFFFF">
            <g id="logo">
                <g id="Group">
                    <rect id="Rectangle-path" x="150.621" y="0.726" width="42.758" height="42.761"></rect>
                    <path d="M193.379,64.865 L150.621,64.865 L150.621,81.074 L150.621,161.069 C150.621,190.586 126.692,214.516 97.174,214.516 C67.656,214.516 43.727,190.585 43.727,161.069 L0.969,161.069 C0.969,180.849 6.946,199.229 17.18,214.516 C34.44,240.294 63.822,257.274 97.174,257.274 C116.955,257.274 135.332,251.297 150.621,241.063 C161.114,234.04 170.142,225.007 177.169,214.516 C187.403,199.229 193.379,180.849 193.379,161.069 L193.379,64.865 L193.379,64.865 Z" id="Shape"></path>
                </g>
                <path d="M214.758,0.726 L214.758,43.487 C261.987,43.487 300.274,81.771 300.274,129.001 C300.274,176.23 261.987,214.518 214.758,214.518 L201.913,214.518 C199.828,218.594 197.505,222.568 194.934,226.41 C186.81,238.547 176.637,248.9 164.72,257.276 L193.378,257.276 L214.757,257.276 C285.6,257.276 343.03,199.842 343.03,129.002 C343.031,58.154 285.601,0.726 214.758,0.726 Z" id="Shape"></path>
            </g>
        </g>
    </g>
</svg>